<?xml version="1.0" encoding="UTF-8"?>
<!DOCTYPE svg PUBLIC "-//W3C//DTD SVG 1.1//EN" "http://www.w3.org/Graphics/SVG/1.1/DTD/svg11.dtd">
<!-- Creator: CorelDRAW -->
<svg xmlns="http://www.w3.org/2000/svg" xml:space="preserve" width="60.4656mm" height="38.9009mm" style="shape-rendering:geometricPrecision; text-rendering:geometricPrecision; image-rendering:optimizeQuality; fill-rule:evenodd; clip-rule:evenodd"
viewBox="0 0 22.9352 14.7555"
 xmlns:xlink="http://www.w3.org/1999/xlink">
 <defs>
  <style type="text/css">
   <![CDATA[
    .fil0 {fill:red}
    .fil2 {fill:white}
    .fil1 {fill:white;fill-rule:nonzero}
   ]]>
  </style>
 </defs>
 <g id="Layer_x0020_1">
  <metadata id="CorelCorpID_0Corel-Layer"/>
  <rect class="fil0" width="22.9352" height="14.7555"/>
  <path class="fil1" d="M2.89262 5.35226c0,0 0.329697,-0.79109 0.989659,-2.37278 0,0 0.115083,0 0.346311,0 0,0 0.331859,0.791128 0.995577,2.37278 0,0 -0.161131,0 -0.484418,0 0,0 -0.0845483,-0.204448 -0.253683,-0.613383 0,0 -0.281562,0 -0.844118,0 0,0 -0.0877725,0.204448 -0.263355,0.613383 0,0 -0.162155,0 -0.485973,0zm0.909359 -1.03358c0,0 0.169704,0 0.507973,0 0,0 -0.0845863,-0.239762 -0.253721,-0.719363 0,0 -0.0845483,0.2398 -0.254252,0.719363zm2.11212 -0.0294345l0 0.642856 0.160031 0c0.119369,0 0.222124,-0.00910345 0.308835,-0.0267793 0.0701345,-0.0176379 0.125248,-0.0535207 0.166479,-0.107572 0.0406621,-0.0535207 0.0609931,-0.118307 0.0609931,-0.193221 0,-0.0679725 -0.020331,-0.12741 -0.0604621,-0.177707 -0.040169,-0.0498035 -0.0947518,-0.0840552 -0.163786,-0.101693 -0.0877725,-0.0240862 -0.198038,-0.0358828 -0.330797,-0.0358828l-0.141293 0zm0 -0.889028l0 0.468866 0.147173 0c0.173952,0 0.307242,0.00641035 0.400931,0.020331 0.0936518,0.0133897 0.174483,0.038538 0.242455,0.0749518 0.108635,0.0578069 0.193752,0.144517 0.256376,0.261193 0.0620931,0.116676 0.0931587,0.245679 0.0931587,0.388073 0,0.134883 -0.0278414,0.255845 -0.0829932,0.362355 -0.0556449,0.10651 -0.133821,0.191097 -0.235514,0.253721 -0.0733207,0.0460104 -0.1595,0.078138 -0.2585,0.0957759 -0.099569,0.0176759 -0.236045,0.0267793 -0.409466,0.0267793l-0.594152 0 0 -2.37278 1.43019 0 0 0.420731 -0.989659 0zm2.31334 -0.420731l0.440531 0 0 0.687273c0,0.14721 0.0262104,0.25209 0.0792001,0.314183 0.0529897,0.0620931 0.142924,0.0931587 0.270297,0.0931587 0.149866,0 0.281562,-0.0117966 0.395545,-0.0358828l0 -1.05873 0.440531 0 0 2.37278 -0.440531 0 0 -0.909397c-0.199631,0.0342517 -0.357007,0.0513966 -0.47209,0.0513966 -0.0845483,0 -0.161093,-0.00644828 -0.229597,-0.020331 -0.0685035,-0.0133897 -0.13329,-0.0369449 -0.194852,-0.0701345 -0.0609931,-0.0337207 -0.11239,-0.0770759 -0.154152,-0.130597 -0.0417242,-0.0529897 -0.0749138,-0.121493 -0.0990001,-0.205017 -0.0240862,-0.0840173 -0.0358828,-0.180362 -0.0358828,-0.290097l0 -0.798601zm3.7837 1.67321c0,0 -0.459269,0 -1.37826,0 0.0262104,0.108104 0.0834863,0.193221 0.171259,0.255845 0.0877725,0.0626242 0.194852,0.0941828 0.321162,0.0941828 0.0877725,0 0.161093,-0.0133517 0.219431,-0.0401311 0.0589069,-0.0267414 0.115614,-0.0722587 0.171297,-0.137007l0.46568 0c-0.0251483,0.0802621 -0.0722587,0.162686 -0.141331,0.247804 -0.184117,0.214121 -0.4191,0.321162 -0.705442,0.321162 -0.133821,0 -0.260662,-0.0240862 -0.3795,-0.0722587 -0.119369,-0.0481724 -0.221593,-0.112959 -0.306711,-0.194852 -0.0850794,-0.0824242 -0.153052,-0.180362 -0.202855,-0.294914 -0.0502966,-0.114552 -0.0754449,-0.235514 -0.0754449,-0.362886 0,-0.171828 0.0417242,-0.329204 0.124679,-0.47319 0.0829932,-0.143417 0.196445,-0.256907 0.340431,-0.339862 0.143455,-0.0835242 0.301362,-0.124717 0.472621,-0.124717 0.174521,0 0.331859,0.0406621 0.47209,0.123086 0.140269,0.0818932 0.249435,0.195914 0.328673,0.341493 0.078669,0.146148 0.118269,0.309935 0.118269,0.491928 0,0.058338 -0.00534828,0.113452 -0.0160448,0.164317zm-1.39059 -0.376276l0.986473 0c-0.0273104,-0.114021 -0.0834863,-0.201262 -0.168073,-0.261762 -0.0845863,-0.0604621 -0.19269,-0.0909966 -0.324348,-0.0909966 -0.127941,0 -0.23339,0.0300035 -0.317938,0.0904656 -0.0840552,0.059969 -0.142924,0.14721 -0.176114,0.262293zm1.66999 1.66995c0,0 0,-0.79109 0,-2.37384 0,0 0.130066,0 0.390728,0 0,0 0,0.0701345 0,0.209835 0.1408,-0.16701 0.336145,-0.250497 0.584518,-0.250497 0.169666,0 0.321655,0.039069 0.456576,0.118269 0.134883,0.078707 0.240293,0.188973 0.315776,0.330266 0.0760138,0.140762 0.114021,0.299731 0.114021,0.476376 0,0.177707 -0.038538,0.337738 -0.114552,0.480662 -0.0765449,0.142924 -0.181993,0.254783 -0.317407,0.335614 -0.135414,0.0807932 -0.287973,0.121493 -0.457107,0.121493 -0.109204,0 -0.20661,-0.0166138 -0.293321,-0.0503345 -0.0867104,-0.0331897 -0.171259,-0.0861794 -0.252621,-0.158438l0 0.760594 -0.426611 0zm0.91099 -2.02271c-0.143986,0 -0.264948,0.0519276 -0.362886,0.156314 -0.097407,0.103817 -0.146641,0.233883 -0.146641,0.389666 0,0.151459 0.0502966,0.2783 0.150397,0.380031 0.100631,0.101693 0.224248,0.153052 0.37199,0.153052 0.142924,0 0.263355,-0.0518897 0.361293,-0.154683 0.097938,-0.102755 0.146679,-0.230166 0.146679,-0.381624 0,-0.156845 -0.0492724,-0.286342 -0.14721,-0.389135 -0.098507,-0.102224 -0.222655,-0.153621 -0.373621,-0.153621zm2.31497 0.0374759c0,0 -0.138638,0 -0.415345,0 0,0 0,0.464049 0,1.39112 0,0 -0.142393,0 -0.426611,0 0,0 0,-0.463518 0,-1.39112 0,0 -0.138107,0 -0.414283,0 0,0 0,-0.129535 0,-0.388604 0,0 0.4191,0 1.25624,0 0,0 0,0.129535 0,0.388604zm1.9478 0.691559c0,0 -0.459269,0 -1.37826,0 0.0262104,0.108104 0.0834863,0.193221 0.171259,0.255845 0.0877725,0.0626242 0.194852,0.0941828 0.321162,0.0941828 0.0877725,0 0.161093,-0.0133517 0.219431,-0.0401311 0.0589069,-0.0267414 0.115614,-0.0722587 0.171297,-0.137007l0.46568 0c-0.0251483,0.0802621 -0.0722587,0.162686 -0.141331,0.247804 -0.184117,0.214121 -0.4191,0.321162 -0.705442,0.321162 -0.133821,0 -0.260662,-0.0240862 -0.3795,-0.0722587 -0.119369,-0.0481724 -0.221593,-0.112959 -0.306711,-0.194852 -0.0850794,-0.0824242 -0.153052,-0.180362 -0.202855,-0.294914 -0.0502966,-0.114552 -0.0754449,-0.235514 -0.0754449,-0.362886 0,-0.171828 0.0417242,-0.329204 0.124679,-0.47319 0.0829932,-0.143417 0.196445,-0.256907 0.340431,-0.339862 0.143455,-0.0835242 0.301362,-0.124717 0.472621,-0.124717 0.174521,0 0.331859,0.0406621 0.47209,0.123086 0.140269,0.0818932 0.249435,0.195914 0.328673,0.341493 0.078669,0.146148 0.118269,0.309935 0.118269,0.491928 0,0.058338 -0.00534828,0.113452 -0.0160448,0.164317zm-1.39059 -0.376276l0.986473 0c-0.0273104,-0.114021 -0.0834863,-0.201262 -0.168073,-0.261762 -0.0845863,-0.0604621 -0.19269,-0.0909966 -0.324348,-0.0909966 -0.127941,0 -0.23339,0.0300035 -0.317938,0.0904656 -0.0840552,0.059969 -0.142924,0.14721 -0.176114,0.262293zm2.89623 0.125779c0,0 0.186279,-0.276745 0.558269,-0.829666 0,0 0.166479,0 0.498869,0 0,0 -0.213021,0.294952 -0.639631,0.884249 0,0 0.225879,0.298669 0.677107,0.895476 0,0 -0.173421,0 -0.520262,0 0,0 -0.191628,-0.276176 -0.574352,-0.828035 0,0 0,0.276176 0,0.828035 0,0 -0.142355,0 -0.427635,0 0,0 0,-0.276176 0,-0.828035 0,0 -0.191628,0.276176 -0.574352,0.828035 0,0 -0.173421,0 -0.520262,0 0,0 0.225879,-0.298669 0.677107,-0.895476 0,0 -0.21249,-0.294914 -0.638038,-0.884249 0,0 0.165948,0 0.497276,0 0,0 0.18571,0.276214 0.558269,0.829666 0,0 0,-0.276745 0,-0.829666 0,0 0.142355,0 0.427635,0 0,0 0,0.276214 0,0.829666z"/>
  <path class="fil1" d="M3.79694 7.67429l-0.385911 0c-0.174483,0 -0.304017,-0.0449483 -0.388035,-0.134883 -0.0840552,-0.0899345 -0.126348,-0.215183 -0.126348,-0.375214l0 -0.426573 0.215183 0 0 0.309366c0,0.198569 0.0278414,0.321693 0.0845863,0.369335 0.0561759,0.0470724 0.149335,0.0711587 0.278869,0.0711587l0.321655 0 0 -0.749859 0.217876 0 0 1.70637 -0.217876 0 0 -0.769697zm2.14367 0.203386l0.184686 0.0974449c-0.0605,0.119331 -0.130635,0.215145 -0.209835,0.288504 -0.079769,0.0733207 -0.169135,0.128966 -0.268173,0.166973 -0.0995311,0.0380069 -0.211959,0.0572759 -0.337207,0.0572759 -0.278338,0 -0.495645,-0.0909966 -0.652452,-0.273521 -0.156845,-0.182524 -0.234983,-0.388566 -0.234983,-0.618731 0,-0.216245 0.0663794,-0.409466 0.1991,-0.5786 0.168073,-0.215183 0.393421,-0.323324 0.675514,-0.323324 0.290628,0 0.522918,0.110797 0.696338,0.331328 0.123655,0.155783 0.186279,0.350066 0.188404,0.582887l-1.53348 0c0.00375517,0.199138 0.0674414,0.361862 0.189466,0.488704 0.122593,0.126841 0.273521,0.190528 0.453352,0.190528 0.0867104,0 0.171297,-0.0149828 0.25319,-0.0454793 0.0818932,-0.0304966 0.15199,-0.0706656 0.209266,-0.120962 0.0572759,-0.0497656 0.1199,-0.131128 0.18681,-0.243024zm0 -0.459231c-0.0294345,-0.117207 -0.0722587,-0.210897 -0.127904,-0.280462 -0.0562138,-0.0701345 -0.130066,-0.126879 -0.222162,-0.169666 -0.0920587,-0.0428242 -0.188404,-0.0642552 -0.290097,-0.0642552 -0.166973,0 -0.310959,0.0540518 -0.430859,0.161662 -0.0878104,0.078138 -0.154152,0.195876 -0.199138,0.352721l1.27016 0zm0.653514 -0.680825l0.217876 0 0 0.313652c0.0867104,-0.118838 0.18681,-0.208204 0.299731,-0.268173 0.112921,-0.0594 0.238738,-0.0894035 0.377869,-0.0894035 0.242493,0 0.450166,0.0878104 0.622525,0.262293 0.172359,0.174483 0.2585,0.384318 0.2585,0.629997 0,0.251028 -0.0850794,0.464049 -0.256376,0.6391 -0.170728,0.175014 -0.376807,0.262786 -0.618731,0.262786 -0.135414,0 -0.260662,-0.0283724 -0.374683,-0.0845483 -0.114021,-0.0567449 -0.216776,-0.1408 -0.308835,-0.252659l0 0.917439 -0.217876 0 0 -2.33048zm0.87837 0.168073c-0.190566,0 -0.350597,0.0663414 -0.480662,0.1991 -0.130597,0.132721 -0.195383,0.298138 -0.195383,0.495645 0,0.129535 0.0289035,0.246211 0.0867483,0.349497 0.058338,0.103855 0.141293,0.185748 0.249397,0.246248 0.108141,0.0604621 0.222693,0.0909587 0.342555,0.0909587 0.118307,0 0.229635,-0.0304966 0.33349,-0.0915276 0.103817,-0.0615242 0.18681,-0.146641 0.248335,-0.256376 0.0620931,-0.109735 0.0926276,-0.224817 0.0926276,-0.345249 0,-0.120962 -0.0305345,-0.236045 -0.0915276,-0.34468 -0.0610311,-0.109204 -0.143455,-0.193221 -0.247311,-0.253721 -0.103286,-0.0599311 -0.216245,-0.0898966 -0.338269,-0.0898966zm1.11813 -0.168073l1.12242 0 0 0.189997 -0.45119 0 0 1.51637 -0.221631 0 0 -1.51637 -0.449597 0 0 -0.189997zm2.85716 1.14006l0.184686 0.0974449c-0.0605,0.119331 -0.130635,0.215145 -0.209835,0.288504 -0.079769,0.0733207 -0.169135,0.128966 -0.268173,0.166973 -0.0995311,0.0380069 -0.211959,0.0572759 -0.337207,0.0572759 -0.278338,0 -0.495645,-0.0909966 -0.652452,-0.273521 -0.156845,-0.182524 -0.234983,-0.388566 -0.234983,-0.618731 0,-0.216245 0.0663794,-0.409466 0.1991,-0.5786 0.168073,-0.215183 0.393421,-0.323324 0.675514,-0.323324 0.290628,0 0.522918,0.110797 0.696338,0.331328 0.123655,0.155783 0.186279,0.350066 0.188404,0.582887l-1.53348 0c0.00375517,0.199138 0.0674414,0.361862 0.189466,0.488704 0.122593,0.126841 0.273521,0.190528 0.453352,0.190528 0.0867104,0 0.171297,-0.0149828 0.25319,-0.0454793 0.0818932,-0.0304966 0.15199,-0.0706656 0.209266,-0.120962 0.0572759,-0.0497656 0.1199,-0.131128 0.18681,-0.243024zm0 -0.459231c-0.0294345,-0.117207 -0.0722587,-0.210897 -0.127904,-0.280462 -0.0562138,-0.0701345 -0.130066,-0.126879 -0.222162,-0.169666 -0.0920587,-0.0428242 -0.188404,-0.0642552 -0.290097,-0.0642552 -0.166973,0 -0.310959,0.0540518 -0.430859,0.161662 -0.0878104,0.078138 -0.154152,0.195876 -0.199138,0.352721l1.27016 0zm1.52547 -0.680825l0.222655 0 0 0.754676 0.815176 -0.754676 0.268173 0 -0.806111 0.760594 0.867104 0.945773 -0.280462 0 -0.738632 -0.824811 -0.125248 0.104879 0 0.719932 -0.222655 0 0 -0.719932 -0.122593 -0.104879 -0.735445 0.824811 -0.280462 0 0.85747 -0.945773 -0.793252 -0.760594 0.268173 0 0.806111 0.754676 0 -0.754676zm1.81394 0l0 1.26265 1.25305 -1.26265 0.0171069 0 0 1.70637 -0.219431 0 0 -1.25142 -1.24342 1.25142 -0.0267414 0 0 -1.70637 0.219431 0zm2.00079 1.36112c0.0535207,0 0.099038,0.019269 0.136476,0.0567449 0.0374759,0.0374759 0.0567449,0.0834863 0.0567449,0.138107 0,0.0529897 -0.019269,0.0990001 -0.0567449,0.137007 -0.037438,0.0380069 -0.0829552,0.0572759 -0.136476,0.0572759 -0.0529897,0 -0.098507,-0.019269 -0.136476,-0.0572759 -0.0374759,-0.0380069 -0.0562138,-0.0840173 -0.0562138,-0.137007 0,-0.0546207 0.0187379,-0.100631 0.0562138,-0.138107 0.037969,-0.0374759 0.0834863,-0.0567449 0.136476,-0.0567449zm1.50567 -1.17435l-0.141293 0.146148c-0.117245,-0.114021 -0.231759,-0.171297 -0.343655,-0.171297 -0.0711587,0 -0.131659,0.0235552 -0.182524,0.0706656 -0.0508276,0.0471104 -0.0759759,0.102224 -0.0759759,0.164848 0,0.0551518 0.0208621,0.108141 0.0626242,0.158438 0.0417242,0.0508656 0.129535,0.111328 0.263317,0.180362 0.163255,0.0845863 0.274052,0.165948 0.33239,0.244617 0.0578069,0.079238 0.0867104,0.168604 0.0867104,0.268173 0,0.1397 -0.0492345,0.258538 -0.147704,0.355945 -0.0979759,0.0968759 -0.221062,0.145579 -0.368273,0.145579 -0.098469,0 -0.192159,-0.0213931 -0.281524,-0.0642173 -0.0894035,-0.0428242 -0.163255,-0.102224 -0.222124,-0.177176l0.138069 -0.156845c0.111859,0.126348 0.230697,0.189504 0.355945,0.189504 0.0877725,0 0.162724,-0.0278414 0.224286,-0.0845863 0.0615621,-0.0561759 0.0925897,-0.122555 0.0925897,-0.1991 0,-0.0626242 -0.020331,-0.118838 -0.0610311,-0.167541 -0.0411931,-0.0481724 -0.132721,-0.109204 -0.276176,-0.181993 -0.153621,-0.0797311 -0.258007,-0.157907 -0.313652,-0.235514 -0.0551518,-0.0770759 -0.0829552,-0.165379 -0.0829552,-0.264948 0,-0.129535 0.0438862,-0.237107 0.13219,-0.322755 0.0883035,-0.0856483 0.2002,-0.129004 0.335083,-0.129004 0.156807,0 0.314714,0.0770759 0.473683,0.230697zm0.360231 -0.186773l0.221062 0 0 0.79697c0,0.194283 0.0106966,0.328104 0.0315586,0.401462 0.0315966,0.104348 0.0909966,0.186773 0.179338,0.247804 0.0883035,0.0605 0.193752,0.0909966 0.316307,0.0909966 0.122062,0 0.225879,-0.0299655 0.310997,-0.0888725 0.0851173,-0.058869 0.143986,-0.136476 0.176645,-0.232821 0.0219242,-0.0658483 0.0326207,-0.205548 0.0326207,-0.418569l0 -0.79697 0.224286 0 0 0.83767c0,0.234945 -0.0273104,0.412121 -0.0818932,0.53149 -0.0551518,0.119369 -0.137576,0.21249 -0.247842,0.279931 -0.110228,0.0674414 -0.248866,0.101162 -0.414814,0.101162 -0.166441,0 -0.30508,-0.0337207 -0.416407,-0.101162 -0.111328,-0.0674414 -0.194321,-0.161624 -0.249435,-0.282055 -0.0545828,-0.121 -0.0824242,-0.302424 -0.0824242,-0.544918l0 -0.822118z"/>
  <polygon class="fil2" points="-0,14.7555 11.4306,10.3108 22.9352,14.7555 "/>
  <rect class="fil0" x="1.17074" y="11.435" width="20.5938" height="0.361293"/>
 </g>
</svg>
