<svg width="150" height="140" viewBox="0 0 150 140" fill="none" xmlns="http://www.w3.org/2000/svg">
<path d="M122.633 92.0649C118.968 92.0649 115.486 93.4048 112.859 95.8279C110.232 98.2796 108.766 101.472 108.766 104.893C108.766 108.314 110.202 111.507 112.859 113.959C115.516 116.382 118.968 117.722 122.633 117.722C130.147 117.722 136.255 111.963 136.255 104.893C136.255 97.8234 130.147 92.0649 122.633 92.0649ZM122.633 112.02C118.418 112.02 114.875 108.77 114.875 104.893C114.875 101.016 118.418 97.7664 122.633 97.7664C126.787 97.7664 130.147 100.959 130.147 104.893C130.147 108.827 126.787 112.02 122.633 112.02Z" fill="black"/>
<path d="M126.176 49.3325C125.626 48.8479 124.893 48.5913 124.13 48.5913H108.461C106.781 48.5913 105.406 49.8741 105.406 51.4421V74.8181C105.406 76.3861 106.781 77.6689 108.461 77.6689H133.323C135.003 77.6689 136.378 76.3861 136.378 74.8181V59.1676C136.378 58.3694 136.011 57.5997 135.37 57.058L126.176 49.3325ZM130.269 71.9674H111.515V54.2643H122.938L130.269 60.4219V71.9674Z" fill="black"/>
<path d="M48.0452 92.0649C44.3799 92.0649 40.898 93.4048 38.2712 95.8279C35.6444 98.2796 34.1783 101.472 34.1783 104.893C34.1783 108.314 35.6139 111.507 38.2712 113.959C40.9285 116.382 44.3799 117.722 48.0452 117.722C55.5589 117.722 61.6676 111.963 61.6676 104.893C61.6676 97.8234 55.5589 92.0649 48.0452 92.0649ZM48.0452 112.02C43.8301 112.02 40.2871 108.77 40.2871 104.893C40.2871 101.016 43.8301 97.7664 48.0452 97.7664C52.1991 97.7664 55.5589 100.959 55.5589 104.893C55.5589 108.827 52.1991 112.02 48.0452 112.02Z" fill="black"/>
<path d="M27.6726 95.5714H21.5333V87.9884C21.5333 86.4205 20.1588 85.1377 18.4789 85.1377C16.799 85.1377 15.4246 86.4205 15.4246 87.9884V98.4222C15.4246 99.9901 16.799 101.273 18.4789 101.273H27.6726C29.3525 101.273 30.7269 99.9901 30.7269 98.4222C30.7269 96.8542 29.3525 95.5714 27.6726 95.5714Z" fill="black"/>
<path d="M43.1582 80.0348C43.1582 78.4669 41.7838 77.1841 40.1039 77.1841H3.05437C1.37447 77.1841 0 78.4669 0 80.0348C0 81.6027 1.37447 82.8856 3.05437 82.8856H40.1039C41.7838 82.8856 43.1582 81.6312 43.1582 80.0348Z" fill="#18A900"/>
<path d="M9.25473 69.7435L46.3042 69.943C47.9841 69.943 49.3586 68.6887 49.3891 67.1208C49.4197 65.5244 48.0452 64.2415 46.3653 64.2415L9.31582 64.042C9.28527 64.042 9.28527 64.042 9.28527 64.042C7.60537 64.042 6.23091 65.2963 6.23091 66.8642C6.20036 68.4606 7.57483 69.7435 9.25473 69.7435Z" fill="#18A900"/>
<path d="M15.4856 56.8011H52.5351C54.215 56.8011 55.5895 55.5183 55.5895 53.9504C55.5895 52.3824 54.215 51.0996 52.5351 51.0996H15.4856C13.8057 51.0996 12.4313 52.3824 12.4313 53.9504C12.4313 55.5183 13.8057 56.8011 15.4856 56.8011Z" fill="#18A900"/>
<path d="M148.87 52.9528L127.001 36.0479C126.451 35.6203 125.779 35.3922 125.046 35.3922H99.328V25.1296C99.328 23.5616 97.9536 22.2788 96.2737 22.2788H18.4789C16.799 22.2788 15.4246 23.5616 15.4246 25.1296V45.997C15.4246 47.5649 16.799 48.8477 18.4789 48.8477C20.1588 48.8477 21.5333 47.5649 21.5333 45.997V27.9803H93.2498V95.5714H68.204C66.5241 95.5714 65.1497 96.8543 65.1497 98.4222C65.1497 99.9901 66.5241 101.273 68.204 101.273H105.498C107.178 101.273 108.552 99.9901 108.552 98.4222C108.552 96.8543 107.178 95.5714 105.498 95.5714H99.3586V41.0937H123.977L143.891 56.4877L143.677 95.5144H140.501C138.821 95.5144 137.447 96.7972 137.447 98.3651C137.447 99.9331 138.821 101.216 140.501 101.216H146.701C148.381 101.216 149.756 99.9616 149.756 98.3937L150 55.1764C149.969 54.3212 149.572 53.4944 148.87 52.9528Z" fill="black"/>
</svg>
