<svg width="47" height="73" viewBox="0 0 47 73" fill="none" xmlns="http://www.w3.org/2000/svg">
<path d="M2.13113 31.5334L36.3936 1.55845C40.4311 -1.97905 46.7561 0.895948 46.7561 6.2647L46.7561 66.2147C46.7572 67.4162 46.4118 68.5926 45.7615 69.6029C45.1112 70.6132 44.1834 71.4147 43.0893 71.9113C41.9952 72.4079 40.7811 72.5786 39.5925 72.4029C38.4039 72.2273 37.2911 71.7128 36.3874 70.921L2.13738 40.9459C1.46607 40.3593 0.928029 39.6359 0.559381 38.8241C0.190732 38.0124 2.9893e-06 37.1312 2.9893e-06 36.2397C2.9893e-06 35.3482 0.190732 34.467 0.559381 33.6553C0.928029 32.8435 1.46607 32.1201 2.13738 31.5334H2.13113Z" fill="#DE1B1B"/>
</svg>
