<svg width="50" height="50" viewBox="0 0 50 50" fill="none" xmlns="http://www.w3.org/2000/svg">
<path d="M46.1498 6.25531H3.85021C1.72996 6.25531 0 7.98527 0 10.1055V39.8946C0 42.0148 1.72996 43.7448 3.85021 43.7448H46.1498C48.27 43.7448 50 42.0148 50 39.8946V10.1055C50 7.98527 48.27 6.25531 46.1498 6.25531ZM45.5907 9.10341L25.2637 26.4874L4.93671 9.10341H45.5907ZM47.1519 39.8946C47.1519 40.4431 46.6983 40.8967 46.1498 40.8967H3.85021C3.30169 40.8967 2.8481 40.4431 2.8481 39.8946V11.0654L24.3354 29.441C24.346 29.4515 24.3671 29.4621 24.3776 29.4726C24.3882 29.4832 24.4093 29.4937 24.4198 29.5043C24.4515 29.5254 24.4726 29.5465 24.5042 29.557C24.5148 29.5675 24.5253 29.5675 24.5359 29.5781C24.5781 29.5992 24.6203 29.6203 24.6624 29.6414C24.673 29.6414 24.6835 29.6519 24.6941 29.6519C24.7257 29.6625 24.7574 29.6836 24.7996 29.6941C24.8101 29.6941 24.8312 29.7047 24.8418 29.7047C24.8734 29.7152 24.9051 29.7258 24.9367 29.7258C24.9473 29.7258 24.9684 29.7363 24.9789 29.7363C25.0105 29.7469 25.0527 29.7469 25.0844 29.7574C25.0949 29.7574 25.1055 29.7574 25.116 29.7574C25.1582 29.7574 25.211 29.768 25.2532 29.768C25.2954 29.768 25.3481 29.768 25.3903 29.7574C25.4008 29.7574 25.4114 29.7574 25.4219 29.7574C25.4536 29.7574 25.4958 29.7469 25.5274 29.7363C25.538 29.7363 25.5591 29.7258 25.5696 29.7258C25.6013 29.7152 25.6329 29.7047 25.6646 29.7047C25.6751 29.7047 25.6962 29.6941 25.7068 29.6941C25.7384 29.6836 25.77 29.673 25.8122 29.6519C25.8228 29.6519 25.8333 29.6414 25.8439 29.6414C25.8861 29.6203 25.9283 29.5992 25.9705 29.5781C25.981 29.5675 25.9916 29.5675 26.0021 29.557C26.0338 29.5359 26.0549 29.5254 26.0865 29.5043C26.097 29.4937 26.1181 29.4832 26.1287 29.4726C26.1392 29.4621 26.1603 29.4515 26.1709 29.441L47.1519 11.519V39.8946Z" fill="black"/>
</svg>
