<svg width="50" height="50" viewBox="0 0 50 50" fill="none" xmlns="http://www.w3.org/2000/svg">
<g clip-path="url(#clip0_267:28)">
<path d="M18.2931 8.694C20.9918 8.694 23.1875 10.89 23.1875 13.5891C23.1875 14.5201 23.9423 15.2748 24.8732 15.2748C25.804 15.2748 26.5589 14.5203 26.5589 13.5891C26.5589 9.0312 22.851 5.32245 18.2931 5.32245C17.3623 5.32245 16.6074 6.07699 16.6074 7.00831C16.6076 7.93895 17.3621 8.694 18.2931 8.694Z" fill="#18A900"/>
<path d="M18.2929 3.37057C23.9268 3.37091 28.5101 7.95458 28.5101 13.5881C28.5101 14.5191 29.2648 15.2738 30.1958 15.2738C31.1268 15.2738 31.8817 14.5192 31.8817 13.5881C31.8817 6.09549 25.7859 -0.000639862 18.2931 -0.000976562C17.3623 -0.000976562 16.6074 0.753569 16.6074 1.68471C16.6076 2.61603 17.3621 3.37057 18.2929 3.37057Z" fill="#18A900"/>
<path d="M46.0799 40.1249L34.5111 28.5558C34.1951 28.2398 33.7663 28.0618 33.3192 28.0618C32.872 28.0618 32.4434 28.2398 32.1273 28.5558L27.0308 33.6517C25.7017 32.7243 24.3554 31.5918 23.0949 30.331C21.834 29.0701 20.7013 27.7239 19.7739 26.3946L24.8703 21.2985C25.5286 20.6403 25.5286 19.5729 24.8703 18.9145L13.3013 7.34498C12.9852 7.02899 12.5565 6.85138 12.1094 6.85138C11.6623 6.85138 11.2335 7.02899 10.9175 7.34498L5.13298 13.13C2.89207 15.3707 2.85739 19.3526 5.03567 24.342C6.99948 28.8396 10.5722 33.8081 15.0953 38.3317C19.6182 42.8546 24.5863 46.4273 29.084 48.3911C31.5414 49.4642 33.754 50.0002 35.635 50.0002C37.573 50.0002 39.1586 49.431 40.2958 48.2936L46.0801 42.5091C46.7382 41.8507 46.7382 40.7834 46.0799 40.1249ZM12.1094 10.9211L21.2946 20.1066L17.8939 23.5073L8.70873 14.3217L12.1094 10.9211ZM30.433 45.3012C26.3119 43.5017 21.7114 40.1798 17.4793 35.9475C13.2466 31.7147 9.9249 27.114 8.12523 22.9926C7.10251 20.6502 6.65974 18.6303 6.81715 17.1983L15.5027 25.884C16.7209 28.1633 18.5163 30.5204 20.7111 32.7147C22.9045 34.9083 25.2611 36.7041 27.5411 37.9229L36.2273 46.6093C34.7954 46.7669 32.7757 46.3241 30.433 45.3012ZM39.1037 44.7177L29.9185 35.5324L33.3192 32.1317L42.5042 41.3172L39.1037 44.7177Z" fill="black"/>
</g>
<defs>
<clipPath id="clip0_267:28">
<rect width="50" height="50" fill="white"/>
</clipPath>
</defs>
</svg>
