<svg width="48" height="74" viewBox="0 0 48 74" fill="none" xmlns="http://www.w3.org/2000/svg">
<path d="M44.875 41.7063L10.6125 71.6813C6.575 75.2188 0.249998 72.3438 0.249998 66.975V7.025C0.248968 5.82347 0.594295 4.64712 1.24463 3.6368C1.89496 2.62649 2.82273 1.82504 3.91683 1.32844C5.01093 0.831843 6.22499 0.661141 7.41361 0.836777C8.60223 1.01241 9.71503 1.52694 10.6187 2.31875L44.8688 32.2938C45.5401 32.8804 46.0781 33.6038 46.4467 34.4156C46.8154 35.2273 47.0061 36.1085 47.0061 37C47.0061 37.8915 46.8154 38.7727 46.4467 39.5844C46.0781 40.3962 45.5401 41.1196 44.8688 41.7063H44.875Z" fill="#DE1B1B"/>
</svg>
