<svg width="140" height="140" viewBox="0 0 140 140" fill="none" xmlns="http://www.w3.org/2000/svg">
<path d="M130.8 19.5941C130.549 17.789 129.25 16.3042 127.495 15.8162L71.2262 0.167939C70.424 -0.0553287 69.5767 -0.0553287 68.7739 0.167939L12.5054 15.8162C10.7498 16.3042 9.45107 17.7884 9.19974 19.5941C8.87338 21.9408 1.42806 77.3894 20.5248 104.973C39.599 132.524 67.7374 139.585 68.9258 139.872C69.279 139.957 69.6389 140 70 140C70.3611 140 70.7211 139.957 71.0743 139.872C72.2632 139.585 100.402 132.524 119.475 104.973C138.572 77.39 131.127 21.9414 130.8 19.5941ZM106.286 51.9655L67.9052 90.3462C67.0121 91.2393 65.8409 91.6865 64.6702 91.6865C63.4996 91.6865 62.3284 91.2399 61.4353 90.3462L37.7048 66.6158C36.8465 65.7581 36.3646 64.5942 36.3646 63.3808C36.3646 62.1675 36.8472 61.0036 37.7048 60.1459L42.4167 55.4341C44.2034 53.6479 47.1004 53.6473 48.8865 55.4341L64.6702 71.2178L95.1042 40.7832C95.9619 39.9249 97.1258 39.443 98.3392 39.443C99.5525 39.443 100.716 39.9249 101.574 40.7832L106.286 45.495C108.073 47.2817 108.073 50.1787 106.286 51.9655Z" fill="#18A900"/>
</svg>
