<svg width="140" height="140" viewBox="0 0 140 140" fill="none" xmlns="http://www.w3.org/2000/svg">
<g clip-path="url(#clip0_225:75)">
<path d="M139.367 86.4081C138.233 84.7457 135.967 84.3168 134.305 85.4503L94.6153 112.511L85.8004 100.714C84.8759 99.4802 83.2311 98.9101 81.688 99.4238C79.7584 100.066 78.7146 102.151 79.3568 104.08L86.571 125.76C86.8436 126.566 87.2883 127.362 87.8917 128.036C90.2787 130.702 94.3754 130.93 97.0422 128.543L97.513 128.122L138.788 91.1748C140.13 89.9747 140.409 87.936 139.367 86.4081Z" fill="#18A900"/>
<path d="M72.8277 115.518H7.26999V17.0761H103.252V92.698C103.252 94.7051 104.88 96.333 106.887 96.333C108.894 96.333 110.522 94.7051 110.522 92.698V13.4411C110.522 11.434 108.894 9.80615 106.887 9.80615H3.63499C1.62787 9.80615 0 11.434 0 13.4411V119.153C0 121.16 1.62787 122.788 3.63499 122.788H72.8277C74.8348 122.788 76.4627 121.16 76.4627 119.153C76.4627 117.145 74.8348 115.518 72.8277 115.518Z" fill="black"/>
<path d="M84.6311 32.6274H25.8902C23.8831 32.6274 22.2552 34.2553 22.2552 36.2624C22.2552 38.2696 23.8831 39.8974 25.8902 39.8974H84.6311C86.6383 39.8974 88.2661 38.2696 88.2661 36.2624C88.2661 34.2553 86.6389 32.6274 84.6311 32.6274Z" fill="black"/>
<path d="M84.6311 48.3394H25.8902C23.8831 48.3394 22.2552 49.9672 22.2552 51.9744C22.2552 53.9815 23.8831 55.6093 25.8902 55.6093H84.6311C86.6383 55.6093 88.2661 53.9815 88.2661 51.9744C88.2661 49.9672 86.6389 48.3394 84.6311 48.3394Z" fill="black"/>
<path d="M84.6311 64.0518H25.8902C23.8831 64.0518 22.2552 65.6796 22.2552 67.6868C22.2552 69.6939 23.8831 71.3217 25.8902 71.3217H84.6311C86.6383 71.3217 88.2661 69.6939 88.2661 67.6868C88.2661 65.6796 86.6389 64.0518 84.6311 64.0518Z" fill="black"/>
<path d="M88.2661 83.3982C88.2661 81.3911 86.6383 79.7632 84.6311 79.7632H25.8902C23.8831 79.7632 22.2552 81.3911 22.2552 83.3982C22.2552 85.4053 23.8831 87.0332 25.8902 87.0332H84.6311C86.6389 87.0332 88.2661 85.4059 88.2661 83.3982Z" fill="black"/>
<path d="M25.8902 94.7095C23.8831 94.7095 22.2552 96.3373 22.2552 98.3445C22.2552 100.352 23.8831 101.979 25.8902 101.979H55.2604C57.2675 101.979 58.8954 100.352 58.8954 98.3445C58.8954 96.3373 57.2675 94.7095 55.2604 94.7095H25.8902Z" fill="black"/>
</g>
<defs>
<clipPath id="clip0_225:75">
<rect width="140" height="140" fill="white"/>
</clipPath>
</defs>
</svg>
